<?xml version="1.0" encoding="UTF-8" standalone="no"?>
<!-- Created with Inkscape (http://www.inkscape.org/) -->

<svg
    xmlns:dc="http://purl.org/dc/elements/1.1/"
    xmlns:cc="http://creativecommons.org/ns#"
    xmlns:rdf="http://www.w3.org/1999/02/22-rdf-syntax-ns#"
    xmlns="http://www.w3.org/2000/svg"
    xmlns:sodipodi="http://sodipodi.sourceforge.net/DTD/sodipodi-0.dtd"
    xmlns:inkscape="http://www.inkscape.org/namespaces/inkscape"
    width="210mm"
    height="297mm"
    viewBox="0 0 210 297"
    version="1.1"
    id="svg8"
    inkscape:version="0.92.2 5c3e80d, 2017-08-06"
    sodipodi:docname="logos.svg">
  <defs
     id="defs2" />
  <sodipodi:namedview
     id="base"
     pagecolor="#ffffff"
     bordercolor="#666666"
     borderopacity="1.0"
     inkscape:pageopacity="0.0"
     inkscape:pageshadow="2"
     inkscape:zoom="0.98994949"
     inkscape:cx="35.723773"
     inkscape:cy="561.7658"
     inkscape:document-units="mm"
     inkscape:current-layer="layer1"
     showgrid="false"
     inkscape:window-width="1680"
     inkscape:window-height="1028"
     inkscape:window-x="0"
     inkscape:window-y="0"
     inkscape:window-maximized="1" />
  <metadata
     id="metadata5">
    <rdf:RDF>
      <cc:Work
         rdf:about="">
        <dc:format>image/svg+xml</dc:format>
        <dc:type
           rdf:resource="http://purl.org/dc/dcmitype/StillImage" />
        <dc:title />
      </cc:Work>
    </rdf:RDF>
  </metadata>
  <g
     inkscape:label="Capa 1"
     inkscape:groupmode="layer"
     id="layer1">
    <path
       inkscape:connector-curvature="0"
       id="path882"
       d="m 49.925885,68.410159 c -0.94814,-1.846376 -1.1817,-2.591033 -1.29077,-4.115342 l -0.13316,-1.861064 -1.60934,-0.08793 c -0.94499,-0.05163 -1.87183,0.0486 -2.24521,0.242798 -0.83826,0.436001 -0.93179,0.418597 -0.711,-0.132292 0.10206,-0.254662 0.26748,-1.379927 0.3676,-2.500588 l 0.18204,-2.037569 -1.13305,0.11934 c -0.62318,0.06564 -1.67088,0.176871 -2.32824,0.247192 -0.65735,0.07032 -1.56009,0.316556 -2.00609,0.547193 l -0.8109,0.419335 0.6523,-1.142505 c 0.3888,-0.680979 0.7105,-1.757063 0.79635,-2.663856 l 0.14405,-1.521355 h -1.2644 c -0.83671,0 -1.68044,0.221218 -2.49442,0.654016 -0.67652,0.359706 -1.23003,0.612373 -1.23003,0.561478 0,-0.0509 0.16563,-0.49403 0.36808,-0.984745 0.20244,-0.490712 0.44393,-1.764398 0.53664,-2.83041 l 0.16857,-1.938202 -1.52884,0.168751 c -0.84085,0.09281 -1.8681,0.232926 -2.28277,0.311364 -0.68054,0.128728 -0.73591,0.08581 -0.56876,-0.440838 0.10185,-0.3209 0.27307,-1.231169 0.3805,-2.022827 l 0.19533,-1.439373 -0.81719,0.176993 c -0.8152,0.176562 -0.81597,0.175639 -0.31815,-0.379716 0.48899,-0.545502 0.48899,-0.559716 0,-0.70621 -1.22832,-0.36798 -3.84801,-1.826276 -4.08872,-2.27606 -0.23768,-0.444108 -0.16082,-0.496041 0.7361,-0.497364 1.33203,-0.0019 2.62788,-0.386688 3.89114,-1.155245 l 1.03756,-0.631245 -1.36353,-0.891953 c -0.74995,-0.490578 -1.36568,-0.957348 -1.36829,-1.037269 -0.003,-0.07992 0.41141,-0.09672 0.92005,-0.03734 0.96223,0.112334 4.31698,-0.589386 5.36903,-1.12305 0.5814,-0.294923 0.53178,-0.357275 -1.25677,-1.579338 -1.82256,-1.245296 -2.32441,-1.728122 -1.39905,-1.345997 1.84139,0.760392 5.54559,0.614723 7.73047,-0.304001 l 0.93464,-0.39301 -0.97881,-0.578684 c -0.53834,-0.318276 -1.42422,-0.830148 -1.96861,-1.137493 l -0.98981,-0.55881 2.00603,0.12874 c 1.99337,0.127927 5.85258,-0.490741 6.15955,-0.987436 0.0757,-0.122502 -0.45774,-0.650482 -1.18545,-1.173288 -0.72771,-0.522808 -1.32311,-1.058167 -1.32311,-1.189688 0,-0.131521 0.5547,-0.07219 1.23268,0.131852 1.83577,0.552488 4.89811,0.421906 6.91831,-0.295006 0.21777,-0.07728 -0.22302,-0.67079 -1.19063,-1.603167 -0.84502,-0.814253 -1.3131,-1.408708 -1.04018,-1.32101 2.11252,0.678819 8.10395,1.230414 8.1019,0.745893 -4.7e-4,-0.109141 -0.47634,-0.912813 -1.0575,-1.785938 -1.23279,-1.852137 -1.32677,-2.233933 -0.36332,-1.476086 0.38226,0.300682 1.84077,0.915247 3.24115,1.3657 2.95177,0.949485 5.37814,1.089155 7.0473,0.405666 1.04993,-0.429927 1.10903,-0.42158 5.38063,0.760011 2.37547,0.657091 4.79425,1.2707 5.37506,1.363574 0.7861,0.125704 1.33818,0.467515 2.16003,1.337356 1.04823,1.109432 1.23397,1.193658 3.67474,1.666364 1.41389,0.273829 3.14027,0.755046 3.83641,1.069371 0.69614,0.314325 2.00985,0.635633 2.91936,0.714017 1.48994,0.128409 1.65364,0.200757 1.65364,0.73083 0,0.323572 -0.29765,1.026933 -0.66145,1.563025 -0.36381,0.536093 -0.66146,1.161921 -0.66146,1.390729 0,0.228809 -0.82974,1.234313 -1.84387,2.234457 -1.01412,1.000143 -2.02378,2.166355 -2.24367,2.59158 -0.52277,1.010931 -1.64504,1.878198 -2.43044,1.878198 -0.74595,0 -0.76032,-0.08747 -0.17666,-1.075515 0.5497,-0.930574 0.32265,-1.241076 -0.49087,-0.671264 -0.33283,0.233124 -0.87632,0.423862 -1.20774,0.423862 -0.46836,0 -0.60259,-0.149188 -0.60259,-0.669761 0,-0.908338 -0.68512,-1.112028 -1.41957,-0.422044 -0.78765,0.739957 -0.93689,0.71271 -1.26591,-0.231111 -0.32565,-0.934165 -0.50724,-0.975908 -1.15098,-0.264584 -0.66354,0.733206 -1.04574,0.665285 -1.81945,-0.323339 l -0.66719,-0.852503 -0.69738,0.654065 -0.69739,0.654069 -0.48582,-0.598853 c -0.2672,-0.329369 -0.54709,-0.746088 -0.62198,-0.926041 -0.0923,-0.221864 -0.31197,-0.126117 -0.68233,0.297434 -0.70347,0.804529 -0.68812,0.989957 0.12613,1.523476 0.52689,0.345231 0.80731,0.378989 1.29652,0.156091 0.73396,-0.334412 0.9416,-0.190998 0.9416,0.650324 0,0.665713 0.49282,0.812464 1.00578,0.299503 0.24742,-0.247422 0.41462,-0.07153 0.75451,0.79375 0.4874,1.24082 0.58409,1.281087 1.69575,0.706224 0.76058,-0.393311 0.7917,-0.384919 1.04519,0.281807 0.1437,0.377955 0.26127,0.816957 0.26127,0.975559 0,0.158602 0.2246,0.08511 0.49911,-0.16332 0.47425,-0.429191 0.52594,-0.41757 1.03797,0.233371 l 0.53887,0.685056 0.91518,-0.803544 c 0.50336,-0.44195 1.10783,-0.803545 1.34328,-0.803545 0.89839,0 0.23395,2.288069 -0.99301,3.419557 -0.38256,0.35279 -0.69601,0.888571 -0.69655,1.190625 -0.002,0.971407 -0.97496,2.186061 -2.48299,3.099001 -0.90094,0.545414 -1.47267,1.075018 -1.47727,1.368412 -0.004,0.271261 -0.13008,0.402881 -0.29041,0.303786 -0.1556,-0.09616 -0.25173,-0.728271 -0.21362,-1.404678 l 0.0693,-1.229828 -0.89283,0.07368 c -0.49105,0.04052 -1.07206,0.219115 -1.29113,0.396875 -0.33772,0.274042 -0.36495,0.242718 -0.17905,-0.20597 0.53488,-1.290952 0.47616,-1.947397 -0.233,-2.604624 -0.38397,-0.355852 -1.11126,-0.724506 -1.61619,-0.819232 -2.59401,-0.486641 -6.16068,3.055278 -6.64661,6.600491 -0.0896,0.653944 -0.25228,1.18899 -0.36144,1.18899 -0.10916,0 -0.407,-0.439441 -0.66186,-0.976535 l -0.4634,-0.976532 -0.6204,0.721257 c -0.81418,0.946536 -1.51978,3.414882 -1.34617,4.709202 0.0753,0.56129 0.0821,1.020525 0.0151,1.020525 -0.067,0 -0.42155,-0.654844 -0.78797,-1.455209 -0.36642,-0.800364 -0.76073,-1.455208 -0.87625,-1.455208 -0.32811,0 -1.48434,1.874205 -1.85938,3.013996 -0.20815,0.632571 -0.28863,1.730661 -0.20872,2.847543 0.11178,1.56232 0.0764,1.773407 -0.25142,1.501318 -0.20981,-0.174133 -0.65076,-0.846463 -0.97988,-1.494065 l -0.5984,-1.177457 -0.57961,0.813985 c -0.86998,1.221777 -1.28038,2.384878 -1.48818,4.217707 -0.1031,0.909278 -0.29654,1.58581 -0.42988,1.503403 -0.13334,-0.08241 -0.48696,-0.629132 -0.78581,-1.214941 -0.53469,-1.048067 -0.55199,-1.057314 -1.08164,-0.577985 -0.85859,0.777013 -1.30453,1.868829 -1.63291,3.997974 l -0.30639,1.986534 z m 1.55448,-22.505226 -0.92604,-0.315796 v -6.35 -6.35 l 0.92604,-0.315795 c 0.82121,-0.280048 0.58161,-0.315796 -2.11667,-0.315796 -2.69828,0 -2.93788,0.03575 -2.11667,0.315796 l 0.92604,0.315795 v 6.35 6.35 l -0.92604,0.315796 c -0.82121,0.280049 -0.58161,0.315796 2.11667,0.315796 2.69828,0 2.93788,-0.03575 2.11667,-0.315796 z m 12.238,-0.534193 c 2.53717,-1.245878 3.80172,-3.637087 3.57722,-6.764348 -0.19968,-2.781557 -1.50067,-4.763093 -3.77668,-5.75227 -0.85026,-0.369529 -1.99468,-0.474098 -5.82084,-0.531865 -3.02329,-0.04565 -4.43598,0.01093 -3.8684,0.154921 0.49175,0.124753 0.99595,0.387542 1.12043,0.583975 0.28956,0.456934 0.29826,11.885433 0.009,12.34077 -0.11932,0.188074 -0.56398,0.45224 -0.98814,0.587034 -0.52491,0.166812 0.66526,0.226603 3.72672,0.187214 4.34335,-0.05588 4.55023,-0.08356 6.02029,-0.805431 z m -5.95415,-0.09628 c -0.42352,-0.110675 -0.46302,-0.624572 -0.46302,-6.023864 0,-5.897832 5.3e-4,-5.903002 0.59531,-6.062404 2.75574,-0.73851 5.72265,0.821911 6.67045,3.508273 1.16125,3.291335 -0.13713,7.013146 -2.88142,8.259575 -0.9996,0.454006 -2.83284,0.602871 -3.92132,0.31842 z m 19.20271,-14.918137 c -0.15612,-0.156121 -0.68595,-0.241957 -1.1774,-0.190745 l -0.89354,0.09311 0.92604,0.420922 c 0.9474,0.43063 1.68932,0.221134 1.1449,-0.323287 z"
       style="fill:#030203;stroke-width:0.26458332"
       inkscape:export-xdpi="31.520647"
       inkscape:export-ydpi="31.520647" />
    <text
       xml:space="preserve"
       style="font-style:normal;font-weight:normal;font-size:3.52777767px;line-height:1.25;font-family:sans-serif;letter-spacing:0px;word-spacing:0px;fill:#000000;fill-opacity:1;stroke:none;stroke-width:0.26458332"
       x="147.50423"
       y="125.2098"
       id="text4516"><tspan
         sodipodi:role="line"
         id="tspan4514"
         x="147.50423"
         y="125.2098"
         style="font-style:normal;font-variant:normal;font-weight:normal;font-stretch:normal;font-size:11.64166832px;line-height:0.75;font-family:'TeX Gyre Pagella';-inkscape-font-specification:'TeX Gyre Pagella';text-align:end;text-anchor:end;stroke-width:0.26458332">Insight Dynamic</tspan><tspan
         sodipodi:role="line"
         x="147.50423"
         y="130.06567"
         style="font-style:normal;font-variant:normal;font-weight:normal;font-stretch:normal;font-size:4.58611155px;line-height:0.75;font-family:'TeX Gyre Pagella';-inkscape-font-specification:'TeX Gyre Pagella';text-align:end;text-anchor:end;stroke-width:0.26458332"
         id="tspan4520">Without limits...</tspan></text>
    <text
       xml:space="preserve"
       style="font-style:normal;font-weight:normal;font-size:3.52777767px;line-height:1.25;font-family:sans-serif;letter-spacing:0px;word-spacing:0px;fill:#000000;fill-opacity:1;stroke:none;stroke-width:0.26458332"
       x="112.82589"
       y="198.15923"
       id="text4524"><tspan
         sodipodi:role="line"
         id="tspan4522"
         x="112.82589"
         y="201.28049"
         style="stroke-width:0.26458332"></tspan></text>
    <path
       inkscape:connector-curvature="0"
       id="path1150"
       d="m 47.690516,130.33126 c -0.979884,-1.90818 -1.182433,-2.5697 -1.286995,-4.20328 l -0.124091,-1.93869 -1.857788,0.0492 c -1.021784,0.027 -1.984496,0.17586 -2.139361,0.33073 -0.438964,0.43896 -0.781367,0.33109 -0.575948,-0.18145 0.102064,-0.25466 0.267487,-1.37993 0.367606,-2.50059 l 0.182034,-2.03757 -1.133048,0.11934 c -0.623177,0.0656 -1.670882,0.17687 -2.328233,0.24719 -0.657352,0.0703 -1.560093,0.31656 -2.006092,0.5472 l -0.810906,0.41933 0.652306,-1.1425 c 0.388802,-0.68098 0.710493,-1.75707 0.796349,-2.66386 l 0.144043,-1.52135 H 36.306 c -0.836718,0 -1.680447,0.22121 -2.494425,0.65401 -0.676518,0.35971 -1.230032,0.61237 -1.230032,0.56148 0,-0.0509 0.165636,-0.49403 0.36808,-0.98475 0.202444,-0.49071 0.443535,-1.7599 0.535756,-2.82042 l 0.167676,-1.92821 -1.395652,0.15544 c -0.767608,0.0855 -1.792957,0.21639 -2.278552,0.29088 -0.808739,0.12405 -0.867626,0.0873 -0.701054,-0.43752 0.100016,-0.31513 0.269744,-1.22067 0.377174,-2.01233 l 0.195328,-1.43937 -0.817191,0.17699 c -0.8152,0.17657 -0.815975,0.17564 -0.318155,-0.37971 0.488993,-0.54551 0.488993,-0.55998 0,-0.71932 -1.948225,-0.63482 -4.335494,-2.00503 -4.335494,-2.48843 0,-0.14873 0.446485,-0.27107 0.992188,-0.27189 1.323095,-0.002 2.621199,-0.38828 3.881833,-1.15524 l 1.037562,-0.63125 -1.363538,-0.89195 c -0.749945,-0.49058 -1.365676,-0.95734 -1.368291,-1.03726 -0.0026,-0.0799 0.41141,-0.0967 0.920055,-0.0374 0.962228,0.11234 4.316982,-0.589389 5.369027,-1.123049 0.581397,-0.29492 0.531781,-0.35728 -1.256771,-1.57934 -1.822555,-1.2453 -2.32441,-1.72812 -1.399044,-1.346 1.841387,0.76039 5.545588,0.61473 7.730463,-0.304 l 0.934642,-0.39301 -0.978805,-0.57868 c -0.538343,-0.31828 -1.424221,-0.83015 -1.968616,-1.1375 l -0.989811,-0.5588 2.006032,0.12873 c 1.993374,0.12793 5.852578,-0.49074 6.159552,-0.98743 0.07571,-0.1225 -0.457744,-0.65048 -1.185453,-1.17329 -0.727709,-0.52281 -1.323108,-1.05817 -1.323108,-1.18969 0,-0.13152 0.554704,-0.0722 1.232676,0.13185 1.835777,0.55249 4.898114,0.42191 6.918314,-0.295 0.217697,-0.0773 -0.223331,-0.6703 -1.190625,-1.601 -1.228094,-1.18165 -1.403671,-1.44493 -0.874948,-1.31204 3.110786,0.7819 7.938755,1.22886 7.936659,0.73475 -4.63e-4,-0.10914 -0.476335,-0.91281 -1.057492,-1.78593 -1.232794,-1.85214 -1.326769,-2.23394 -0.363323,-1.47609 0.382257,0.30068 1.822132,0.90774 3.199725,1.34903 2.889507,0.92559 5.476539,1.08095 7.050302,0.42339 0.953516,-0.39841 1.121871,-0.37564 5.008843,0.67745 2.21219,0.59934 4.662036,1.21356 5.444102,1.36493 1.159012,0.22434 1.623798,0.48887 2.513586,1.43061 1.033738,1.0941 1.228014,1.1818 3.66235,1.65326 1.413888,0.27383 3.140276,0.75025 3.836416,1.0587 0.69614,0.30846 2.009849,0.63069 2.919354,0.71606 1.484252,0.13932 1.653646,0.21528 1.653646,0.7415 0,0.32245 -0.297656,1.02489 -0.661458,1.56099 -0.363802,0.53609 -0.661459,1.16192 -0.661459,1.39072 0,0.22881 -0.829738,1.23432 -1.843865,2.23446 -1.014127,1.000149 -2.02378,2.166359 -2.243672,2.591589 -0.522772,1.01092 -1.645039,1.87819 -2.430436,1.87819 -0.745953,0 -0.76032,-0.0875 -0.176665,-1.07551 0.549703,-0.93058 0.322646,-1.24108 -0.490874,-0.67127 -0.33283,0.23313 -0.87631,0.42387 -1.207735,0.42387 -0.468363,0 -0.602586,-0.14919 -0.602586,-0.66977 0,-0.90833 -0.685126,-1.11202 -1.419577,-0.42204 -0.787649,0.73996 -0.936884,0.71271 -1.265902,-0.23111 -0.325652,-0.93416 -0.50724,-0.97591 -1.15098,-0.26458 -0.663543,0.7332 -1.045744,0.66528 -1.819457,-0.32334 l -0.667187,-0.852509 -0.697383,0.654069 -0.697384,0.65407 -0.485822,-0.59885 c -0.267201,-0.329369 -0.547093,-0.746099 -0.62198,-0.926049 -0.09233,-0.22186 -0.311976,-0.12612 -0.682329,0.29743 -0.703472,0.804539 -0.68812,0.989969 0.12613,1.523479 0.526888,0.34523 0.807307,0.37899 1.296519,0.15609 0.733954,-0.33441 0.941602,-0.19099 0.941602,0.65033 0,0.66447 0.49258,0.8127 1.00335,0.30193 0.244186,-0.24419 0.420478,-0.0655 0.780521,0.79106 0.523388,1.24519 0.582297,1.27008 1.672164,0.70649 0.760582,-0.39332 0.791705,-0.38492 1.045194,0.2818 0.1437,0.37796 0.261271,0.81696 0.261271,0.97556 0,0.1586 0.224597,0.0851 0.499104,-0.16332 0.474253,-0.42919 0.525942,-0.41757 1.037974,0.23337 l 0.538864,0.68506 0.915188,-0.80355 c 0.503352,-0.44195 1.107827,-0.80354 1.343279,-0.80354 0.898388,0 0.233948,2.28807 -0.993018,3.41956 -0.382556,0.35279 -0.696002,0.88857 -0.696547,1.19062 -0.0019,0.97141 -0.974958,2.18606 -2.482991,3.099 -0.900932,0.54542 -1.472665,1.07502 -1.477266,1.36841 -0.0043,0.27127 -0.130078,0.40289 -0.290415,0.30379 -0.155599,-0.0962 -0.251727,-0.72827 -0.213617,-1.40468 l 0.06929,-1.22983 -0.892826,0.0737 c -0.491056,0.0405 -1.072062,0.21912 -1.291129,0.39688 -0.337889,0.27417 -0.364607,0.24293 -0.176155,-0.20597 0.122182,-0.29104 0.274691,-0.90007 0.338905,-1.3534 0.09555,-0.67453 -0.0199,-0.92085 -0.63563,-1.35617 -1.208563,-0.85444 -2.285994,-0.96943 -3.607255,-0.38497 -2.240373,0.99102 -4.24624,3.72876 -4.594714,6.27117 -0.08963,0.65395 -0.252283,1.18899 -0.361442,1.18899 -0.109162,0 -0.407001,-0.43944 -0.661869,-0.97653 l -0.463397,-0.97653 -0.6204,0.72125 c -0.814176,0.94654 -1.519774,3.41488 -1.346171,4.70921 0.07529,0.56128 0.08213,1.02052 0.01521,1.02052 -0.06692,0 -0.415293,-0.66393 -0.774163,-1.47539 -0.378767,-0.85647 -0.788884,-1.43044 -0.977628,-1.36823 -0.178826,0.0589 -0.724098,0.8717 -1.211715,1.80612 -0.829839,1.59024 -0.879244,1.82942 -0.772043,3.73763 0.06299,1.12127 0.01299,1.97591 -0.111125,1.89921 -0.124108,-0.0767 -0.561205,-0.72699 -0.971323,-1.44509 -0.705622,-1.23549 -0.768731,-1.28014 -1.175009,-0.8312 -0.73446,0.81156 -1.447983,2.76469 -1.640144,4.48956 -0.101301,0.90928 -0.293278,1.58581 -0.426617,1.5034 -0.133337,-0.0824 -0.486952,-0.62913 -0.78581,-1.21494 -0.534683,-1.04807 -0.551987,-1.05731 -1.08164,-0.57798 -0.858587,0.77701 -1.304522,1.86883 -1.632907,3.99797 l -0.306397,1.98653 z M 74.914877,92.423671 c 0,-0.26841 -0.313245,-0.38126 -1.058333,-0.38126 -1.283187,0 -1.330547,0.14888 -0.198438,0.62378 0.944793,0.39633 1.256771,0.33612 1.256771,-0.24252 z"
       style="fill:#030303;stroke-width:0.26458335"
       sodipodi:nodetypes="cscccssccccccscscscccccccccccsccccccccccccccccssccccscccccccsccscsccsccssccccccccccccsccccsccccscccccsccccccccsscccsccccccccccccccsscs" />
    <text
       id="text4629"
       y="167.06715"
       x="154.98776"
       style="font-style:normal;font-weight:normal;font-size:3.52777767px;line-height:1.25;font-family:sans-serif;letter-spacing:0px;word-spacing:0px;fill:#000000;fill-opacity:1;stroke:none;stroke-width:0.26458332"
       xml:space="preserve"><tspan
         style="font-style:normal;font-variant:normal;font-weight:normal;font-stretch:normal;font-size:11.64166832px;line-height:0.75;font-family:'TeX Gyre Pagella';-inkscape-font-specification:'TeX Gyre Pagella';text-align:end;text-anchor:end;stroke-width:0.26458332"
         y="167.06715"
         x="154.98776"
         id="tspan4625"
         sodipodi:role="line">Insight Dynamic</tspan><tspan
         id="tspan4627"
         style="font-style:normal;font-variant:normal;font-weight:normal;font-stretch:normal;font-size:4.58611155px;line-height:0.75;font-family:'TeX Gyre Pagella';-inkscape-font-specification:'TeX Gyre Pagella';text-align:end;text-anchor:end;stroke-width:0.26458332"
         y="171.92302"
         x="154.98776"
         sodipodi:role="line">Without limits...</tspan></text>
    <path
       sodipodi:nodetypes="cscccssccccccscscscccccccccccsccccccccccccccccssccccscccccccsccscsccsccssccccccccccccsccccsccccscccccsccccccccsscccsccccccccccccccsscs"
       style="fill:#030303;stroke-width:0.1099263"
       d="m 41.548038,174.41809 c -0.407113,-0.79279 -0.491265,-1.06763 -0.534707,-1.74633 l -0.05156,-0.80547 -0.771855,0.0204 c -0.42452,0.0112 -0.824497,0.0731 -0.888839,0.13741 -0.182376,0.18237 -0.324634,0.13756 -0.239288,-0.0754 0.0424,-0.10581 0.111132,-0.57332 0.152729,-1.03893 l 0.07563,-0.84654 -0.470747,0.0496 c -0.258911,0.0272 -0.6942,0.0735 -0.967309,0.1027 -0.27311,0.0292 -0.648171,0.13153 -0.83347,0.22735 l -0.336907,0.17421 0.271013,-0.47466 c 0.161535,-0.28294 0.295189,-0.73001 0.330859,-1.10676 l 0.05985,-0.63208 h -0.525316 c -0.347631,0 -0.698175,0.0919 -1.036358,0.27172 -0.281072,0.14946 -0.51104,0.25443 -0.51104,0.23328 0,-0.0212 0.06881,-0.20525 0.152926,-0.40913 0.08411,-0.20387 0.184275,-0.73118 0.22259,-1.17179 l 0.06966,-0.80112 -0.57985,0.0646 c -0.318918,0.0356 -0.744919,0.0899 -0.946669,0.12085 -0.336006,0.0516 -0.360472,0.0363 -0.291267,-0.18177 0.04156,-0.13093 0.112071,-0.50715 0.156705,-0.83606 l 0.08115,-0.59802 -0.339518,0.0735 c -0.338691,0.0734 -0.339013,0.0729 -0.132184,-0.15776 0.203162,-0.22665 0.203162,-0.23266 0,-0.29885 -0.809427,-0.26376 -1.801265,-0.83304 -1.801265,-1.03388 0,-0.0618 0.185501,-0.11261 0.412224,-0.11295 0.549705,-7.4e-4 1.089028,-0.16132 1.612783,-0.47998 l 0.431075,-0.26226 -0.566509,-0.37058 c -0.311579,-0.20382 -0.567396,-0.39774 -0.568482,-0.43095 -0.0011,-0.0332 0.170928,-0.0402 0.382255,-0.0156 0.399775,0.0467 1.793573,-0.24488 2.230666,-0.4666 0.241552,-0.12253 0.220939,-0.14844 -0.52215,-0.65617 -0.757216,-0.51738 -0.965721,-0.71797 -0.58126,-0.55922 0.76504,0.31592 2.304022,0.25541 3.211771,-0.1263 l 0.388315,-0.16328 -0.406663,-0.24043 c -0.223665,-0.13223 -0.59172,-0.3449 -0.8179,-0.47259 l -0.411236,-0.23217 0.833445,0.0535 c 0.828185,0.0532 2.431567,-0.20389 2.559105,-0.41025 0.03146,-0.0509 -0.190178,-0.27025 -0.492519,-0.48746 -0.302341,-0.21722 -0.549711,-0.43965 -0.549711,-0.49428 0,-0.0547 0.230462,-0.03 0.512139,0.0548 0.762709,0.22954 2.035017,0.17529 2.874348,-0.12256 0.09045,-0.0321 -0.09279,-0.2785 -0.494668,-0.66517 -0.510236,-0.49094 -0.583183,-0.60032 -0.363515,-0.54512 1.292437,0.32486 3.29831,0.51056 3.29744,0.30527 -1.93e-4,-0.0454 -0.197903,-0.37925 -0.439356,-0.742 -0.512188,-0.76951 -0.551232,-0.92813 -0.15095,-0.61327 0.158816,0.12492 0.75704,0.37714 1.329389,0.56048 1.200501,0.38456 2.275333,0.4491 2.929184,0.17591 0.396157,-0.16553 0.466103,-0.15607 2.081021,0.28146 0.919097,0.24901 1.936933,0.5042 2.261858,0.56708 0.481534,0.0932 0.674638,0.20311 1.044318,0.59438 0.429487,0.45456 0.510203,0.491 1.521595,0.68688 0.587427,0.11376 1.304688,0.3117 1.593913,0.43986 0.289225,0.12815 0.835031,0.26202 1.212903,0.29749 0.616661,0.0579 0.687039,0.0894 0.687039,0.30808 0,0.13396 -0.123667,0.42581 -0.274816,0.64854 -0.151149,0.22273 -0.274816,0.48274 -0.274816,0.5778 0,0.0951 -0.34473,0.51282 -0.766069,0.92835 -0.421339,0.41553 -0.840819,0.90006 -0.932178,1.07673 -0.217195,0.42 -0.683462,0.78033 -1.009771,0.78033 -0.309921,0 -0.31589,-0.0364 -0.0734,-0.44684 0.228385,-0.38663 0.13405,-0.51564 -0.203943,-0.27889 -0.13828,0.0969 -0.36408,0.1761 -0.501776,0.1761 -0.194592,0 -0.250357,-0.062 -0.250357,-0.27827 0,-0.37738 -0.284649,-0.46201 -0.589791,-0.17534 -0.327244,0.30743 -0.389247,0.29611 -0.525943,-0.096 -0.135299,-0.3881 -0.210743,-0.40545 -0.478197,-0.10992 -0.275682,0.30463 -0.434475,0.27641 -0.755929,-0.13434 l -0.277196,-0.35418 -0.289741,0.27174 -0.289742,0.27175 -0.201844,-0.24881 c -0.111014,-0.13684 -0.227301,-0.30998 -0.258413,-0.38474 -0.03836,-0.0922 -0.129617,-0.0524 -0.283488,0.12357 -0.29227,0.33426 -0.285893,0.4113 0.05241,0.63296 0.218905,0.14343 0.335411,0.15746 0.538663,0.0648 0.304936,-0.13893 0.391207,-0.0794 0.391207,0.2702 0,0.27607 0.204652,0.33765 0.416861,0.12544 0.101452,-0.10145 0.174696,-0.0272 0.324283,0.32866 0.217452,0.51734 0.241927,0.52768 0.694733,0.29352 0.315999,-0.1634 0.328929,-0.15992 0.434246,0.11708 0.0597,0.15703 0.10855,0.33943 0.10855,0.40532 0,0.0659 0.09331,0.0353 0.207362,-0.0679 0.197039,-0.17831 0.218514,-0.17348 0.431247,0.097 l 0.223882,0.28462 0.380232,-0.33385 c 0.209128,-0.18362 0.460268,-0.33384 0.558092,-0.33384 0.373253,0 0.0972,0.95062 -0.412569,1.42072 -0.15894,0.14657 -0.289168,0.36918 -0.289394,0.49467 -8.11e-4,0.40359 -0.405065,0.90824 -1.031607,1.28754 -0.37431,0.2266 -0.611847,0.44663 -0.613759,0.56853 -0.0018,0.1127 -0.05404,0.16738 -0.120658,0.12621 -0.06465,-0.04 -0.104585,-0.30257 -0.08875,-0.5836 l 0.02879,-0.51095 -0.370941,0.0306 c -0.20402,0.0168 -0.445409,0.091 -0.536425,0.1649 -0.140383,0.11391 -0.151483,0.10092 -0.07319,-0.0856 0.05076,-0.12092 0.114126,-0.37395 0.140805,-0.5623 0.0397,-0.28024 -0.0083,-0.38258 -0.264085,-0.56345 -0.502121,-0.35499 -0.94976,-0.40276 -1.498704,-0.15994 -0.930807,0.41174 -1.764183,1.54919 -1.908963,2.60548 -0.03724,0.2717 -0.104816,0.49399 -0.150168,0.49399 -0.04535,0 -0.169097,-0.18257 -0.274987,-0.40572 l -0.192527,-0.40572 -0.257757,0.29966 c -0.338266,0.39326 -0.63142,1.41878 -0.559293,1.95653 0.03128,0.2332 0.03412,0.424 0.0063,0.424 -0.02781,0 -0.172542,-0.27584 -0.321641,-0.61298 -0.157366,-0.35584 -0.327757,-0.59431 -0.406175,-0.56845 -0.0743,0.0245 -0.30084,0.36216 -0.50343,0.75038 -0.344773,0.66069 -0.365299,0.76007 -0.32076,1.55287 0.02617,0.46585 0.0054,0.82093 -0.04617,0.78906 -0.05156,-0.0319 -0.233164,-0.30204 -0.403555,-0.60038 -0.293165,-0.51331 -0.319385,-0.53186 -0.488181,-0.34535 -0.305146,0.33718 -0.601593,1.14865 -0.681429,1.86528 -0.04209,0.37778 -0.121849,0.65886 -0.177246,0.62462 -0.0554,-0.0342 -0.202315,-0.26139 -0.32648,-0.50477 -0.222146,-0.43545 -0.229335,-0.43928 -0.449389,-0.24014 -0.356717,0.32283 -0.541989,0.77645 -0.678423,1.66103 l -0.127299,0.82535 z m 11.310889,-15.74944 c 0,-0.11152 -0.130144,-0.1584 -0.439705,-0.1584 -0.533125,0 -0.552802,0.0619 -0.08245,0.25916 0.392533,0.16467 0.52215,0.13965 0.52215,-0.10076 z"
       id="path4631"
       inkscape:connector-curvature="0" />
  </g>
</svg>
